HIERARCHY
ROOT Hips
{
	OFFSET 0.000000 0.000000 0.000000
	CHANNELS 6 Xposition Yposition Zposition Zrotation Yrotation Xrotation 
	JOINT LHipJoint
	{
		OFFSET 0.000000 0.000000 0.000000
		CHANNELS 3 Zrotation Yrotation Xrotation
		JOINT LeftUpLeg
		{
			OFFSET 1.363060 -1.794630 0.839290
			CHANNELS 3 Zrotation Yrotation Xrotation
			JOINT LeftLeg
			{
				OFFSET 2.448110 -6.726130 0.000000
				CHANNELS 3 Zrotation Yrotation Xrotation
				JOINT LeftFoot
				{
					OFFSET 2.562200 -7.039590 0.000000
					CHANNELS 3 Zrotation Yrotation Xrotation
					JOINT LeftToeBase
					{
						OFFSET 0.157640 -0.433110 2.322550
						CHANNELS 3 Zrotation Yrotation Xrotation
						End Site
						{
							OFFSET 0.000000 0.000000 0.000000
						}
					}
				}
			}
		}
	}
	JOINT RHipJoint
	{
		OFFSET 0.000000 0.000000 0.000000
		CHANNELS 3 Zrotation Yrotation Xrotation
		JOINT RightUpLeg
		{
			OFFSET -1.305520 -1.794630 0.839290
			CHANNELS 3 Zrotation Yrotation Xrotation
			JOINT RightLeg
			{
				OFFSET -2.542530 -6.985550 0.000000
				CHANNELS 3 Zrotation Yrotation Xrotation
				JOINT RightFoot
				{
					OFFSET -2.568260 -7.056230 0.000000
					CHANNELS 3 Zrotation Yrotation Xrotation
					JOINT RightToeBase
					{
						OFFSET -0.164730 -0.452590 2.363150
						CHANNELS 3 Zrotation Yrotation Xrotation
						End Site
						{
							OFFSET 0.000000 0.000000 0.000000
						}
					}
				}
			}
		}
	}
	JOINT LowerBack
	{
		OFFSET 0.000000 0.000000 0.000000
		CHANNELS 3 Zrotation Yrotation Xrotation
		JOINT Spine
		{
			OFFSET 0.028270 2.035590 -0.193380
			CHANNELS 3 Zrotation Yrotation Xrotation
			JOINT Spine1
			{
				OFFSET 0.056720 2.048850 -0.042750
				CHANNELS 3 Zrotation Yrotation Xrotation
				JOINT Neck
				{
					OFFSET 0.000000 0.000000 0.000000
					CHANNELS 3 Zrotation Yrotation Xrotation
					JOINT Neck1
					{
						OFFSET -0.054170 1.746240 0.172020
						CHANNELS 3 Zrotation Yrotation Xrotation
						JOINT Head
						{
							OFFSET 0.104070 1.761360 -0.123970
							CHANNELS 3 Zrotation Yrotation Xrotation
							End Site
							{
								OFFSET 0.000000 0.000000 0.000000
							}
						}
					}
				}
				JOINT LeftShoulder
				{
					OFFSET 0.000000 0.000000 0.000000
					CHANNELS 3 Zrotation Yrotation Xrotation
					JOINT LeftArm
					{
						OFFSET 3.362410 1.200890 -0.311210
						CHANNELS 3 Zrotation Yrotation Xrotation
						JOINT LeftForeArm
						{
							OFFSET 4.983000 -0.000000 -0.000000
							CHANNELS 3 Zrotation Yrotation Xrotation
							JOINT LeftHand
							{
								OFFSET 3.483560 -0.000000 -0.000000
								CHANNELS 3 Zrotation Yrotation Xrotation
								JOINT LeftFingerBase
								{
									OFFSET 0.000000 0.000000 0.000000
									CHANNELS 3 Zrotation Yrotation Xrotation
									JOINT LeftHandIndex1
									{
										OFFSET 0.715260 -0.000000 -0.000000
										CHANNELS 3 Zrotation Yrotation Xrotation
										End Site
										{
											OFFSET 0.000000 0.000000 0.000000
										}
									}
								}
								JOINT LThumb
								{
									OFFSET 0.000000 0.000000 0.000000
									CHANNELS 3 Zrotation Yrotation Xrotation
									End Site
									{
										OFFSET 0.000000 0.000000 0.000000
									}
								}
							}
						}
					}
				}
				JOINT RightShoulder
				{
					OFFSET 0.000000 0.000000 0.000000
					CHANNELS 3 Zrotation Yrotation Xrotation
					JOINT RightArm
					{
						OFFSET -3.136600 1.374050 -0.404650
						CHANNELS 3 Zrotation Yrotation Xrotation
						JOINT RightForeArm
						{
							OFFSET -5.241900 -0.000000 -0.000000
							CHANNELS 3 Zrotation Yrotation Xrotation
							JOINT RightHand
							{
								OFFSET -3.444170 -0.000000 -0.000000
								CHANNELS 3 Zrotation Yrotation Xrotation
								JOINT RightFingerBase
								{
									OFFSET 0.000000 0.000000 0.000000
									CHANNELS 3 Zrotation Yrotation Xrotation
									JOINT RightHandIndex1
									{
										OFFSET -0.622530 -0.000000 -0.000000
										CHANNELS 3 Zrotation Yrotation Xrotation
										End Site
										{
											OFFSET 0.000000 0.000000 0.000000
										}
									}
								}
								JOINT RThumb
								{
									OFFSET 0.000000 0.000000 0.000000
									CHANNELS 3 Zrotation Yrotation Xrotation
									End Site
									{
										OFFSET 0.000000 0.000000 0.000000
									}
								}
							}
						}
					}
				}
			}
		}
	}
}
MOTION
Frames: 12
Frame Time: 0.008333
5.494610 15.326126 37.192492 172.696224 -35.552409 -165.925817 -3.595922 -22.510628 -14.419762 9.294491 28.396161 15.579501 2.108352 35.874298 24.015486 7.326976 14.632642 11.334383 -14.836754 -0.081717 -33.038838 -4.619289 10.639713 -15.093390 11.538368 -10.728721 -36.577855 -1.059059 -20.890776 50.955411 -16.322990 -5.289580 -17.440286 0.339661 -1.509252 0.350660 8.707095 3.840308 31.736592 -1.132579 -2.406758 -9.680681 -5.351489 -1.885722 3.179202 -6.002218 0.113737 -17.133839 -4.222824 0.385089 12.001379 20.628554 -16.259692 7.542147 12.912810 -1.238945 1.289352 -91.593802 -44.788006 36.351842 34.093344 -65.846315 26.053269 -3.329188 -41.746475 7.439472 0.000002 -0.000001 0.000002 0.000000 0.000000 -0.000000 -0.000000 0.000000 -0.000000 -15.412989 -2.067727 1.945101 74.204221 10.345383 14.916372 27.109390 62.326197 55.203224 -29.513339 16.178085 -2.369117 -0.000005 0.000004 -0.000002 -0.000000 -0.000000 0.000000 -0.000000 0.000000 0.000000 
5.445420 15.322072 36.998348 172.831635 -34.424095 -165.967366 -3.172079 -22.169883 -14.318193 9.369868 28.166180 14.468460 1.620155 33.827392 26.555775 10.389522 18.250221 17.745750 -15.260173 -5.039204 -32.062313 -4.729879 10.804873 -15.050621 11.809095 -10.987344 -35.630099 -0.324580 -21.477376 50.266403 -17.619802 -3.603528 -20.027474 -4.138981 6.283446 3.835717 8.141754 3.648323 31.491486 -1.082451 -2.072126 -9.706222 -4.411285 -1.590405 3.669032 -6.828708 -0.098134 -17.786580 -4.101811 0.359214 11.846000 20.184498 -16.485484 8.215402 12.216891 -1.449432 0.711331 -91.288282 -44.167293 36.982829 34.885070 -65.651434 25.512461 -4.775631 -41.612745 7.995569 0.000002 -0.000001 0.000002 0.000000 0.000000 -0.000000 0.000000 0.000000 -0.000000 -16.191399 -2.773701 1.796830 74.239377 11.028580 14.761252 26.889207 61.764694 54.284748 -27.725080 16.603393 -2.126105 -0.000005 0.000004 -0.000002 0.000000 0.000000 -0.000000 -0.000000 -0.000000 0.000000 
5.398844 15.310360 36.812913 172.926028 -33.234476 -165.973065 -3.086440 -21.674231 -14.230489 9.375945 27.841595 13.436529 2.722273 33.751197 28.436523 12.178493 19.193862 23.515614 -15.693222 -6.721632 -32.364340 -4.400456 10.663609 -15.134840 11.917925 -11.305620 -34.775949 -1.049670 -22.702121 50.065913 -20.208370 -0.260216 -23.493053 -10.496576 1.962582 18.123900 7.794114 3.547065 31.410185 -1.011300 -2.093003 -9.802835 -5.067770 -1.483543 3.343751 -6.110582 0.126806 -17.725705 -4.115258 0.406801 11.502756 19.514432 -15.823136 8.012262 12.888410 -1.366879 0.397142 -91.014129 -42.969709 37.332122 35.057203 -65.422743 25.543107 -5.210246 -41.616305 8.173118 0.000002 -0.000001 0.000002 -0.000000 0.000000 0.000000 0.000000 0.000000 -0.000000 -15.402813 -2.297406 1.819498 74.113072 11.215994 13.652510 27.160413 60.892069 54.106840 -26.374495 17.325501 -1.976773 -0.000005 0.000004 -0.000002 -0.000000 0.000000 -0.000000 -0.000000 -0.000000 0.000000 
5.356892 15.274625 36.634685 172.950999 -32.082614 -166.211856 -2.768460 -21.209139 -14.431986 9.137258 26.894249 13.206134 2.771003 33.106561 29.934340 14.183602 20.886628 29.634086 -13.917669 -6.075234 -27.929152 -4.350320 10.482112 -15.273980 13.003605 -12.885101 -34.373296 -1.826118 -22.417237 50.552422 -21.762572 2.931209 -27.251384 -12.891327 -4.365875 26.926512 7.336578 3.412721 31.434052 -0.895184 -2.041076 -9.748540 -5.313645 -1.304364 3.560745 -5.747748 0.269095 -18.090087 -4.002825 0.454302 11.109272 19.230457 -15.479432 8.789339 13.522809 -1.061462 0.274541 -91.157356 -42.552864 37.937203 35.176352 -65.284342 25.964450 -5.569476 -41.975993 8.394186 0.000002 -0.000001 0.000002 0.000000 0.000000 0.000000 -0.000000 -0.000000 -0.000000 -15.225778 -2.265326 1.740062 74.063465 11.777944 12.713414 27.378556 60.185806 54.777677 -26.639197 18.085393 -2.094923 -0.000005 0.000004 -0.000002 0.000000 -0.000000 0.000000 0.000000 0.000000 -0.000000 
5.334144 15.232432 36.472673 172.924187 -31.318418 -166.630337 -2.385268 -20.891855 -14.809912 9.085773 26.272594 13.164039 1.273455 29.544615 31.706475 16.558101 24.292338 36.388308 -11.925580 -6.370723 -22.476609 -4.569605 10.602389 -15.292561 13.926849 -14.832886 -33.886416 -1.400125 -21.757530 50.911037 -21.454342 5.312687 -30.811941 -13.230060 0.084259 25.748930 7.027518 3.335308 31.801869 -0.799566 -1.863880 -9.645859 -5.122263 -0.965477 3.711473 -5.790603 0.209081 -18.356581 -3.814301 0.365127 10.742079 18.941354 -15.701809 9.285218 14.127533 -1.531076 -0.031119 -91.394020 -42.265677 38.619818 35.669887 -65.087368 26.356348 -4.709210 -42.459700 8.143157 0.000002 -0.000001 0.000002 0.000000 0.000000 -0.000000 -0.000000 -0.000000 -0.000000 -15.558313 -2.982956 1.902740 74.092120 12.443159 11.753331 27.628299 59.569680 55.336180 -26.916090 18.815863 -2.211507 -0.000005 0.000004 -0.000002 -0.000000 0.000000 -0.000000 0.000000 -0.000000 0.000000 
5.310060 15.199550 36.312012 172.887063 -30.322960 -166.905839 -2.205344 -20.368955 -14.841152 8.613068 25.923952 11.945123 0.561883 26.214470 34.431938 17.242741 26.155000 39.031998 -11.043122 -6.715319 -19.935404 -4.532297 10.664859 -15.395984 14.840997 -16.387771 -33.819233 -1.086323 -20.333562 51.807545 -21.340735 6.055303 -32.691512 -10.904529 -1.762753 21.929516 6.299084 3.044631 31.884393 -0.639748 -1.923922 -9.652838 -5.005145 -0.866145 3.422021 -5.599628 0.224302 -18.230817 -3.667492 0.312837 10.474246 18.445201 -15.471086 8.480656 14.381963 -1.175397 0.042311 -91.257424 -41.271082 38.671648 35.029343 -64.963679 26.996348 -6.409998 -42.537476 8.862984 0.000002 -0.000001 0.000002 0.000000 -0.000000 -0.000000 0.000000 -0.000000 -0.000000 -15.574335 -2.500306 2.076966 74.110531 13.109979 10.599362 28.230914 58.636865 54.154894 -26.294839 18.208953 -2.045850 -0.000005 0.000004 -0.000002 -0.000000 -0.000000 0.000000 0.000000 0.000000 0.000000 
5.267823 15.183784 36.162913 173.425878 -29.129800 -167.366990 -2.400053 -19.553619 -14.676979 8.448575 24.772774 10.357697 0.403266 24.253239 37.498535 16.436271 27.281573 37.953165 -11.027665 -6.445600 -20.084066 -4.048520 10.829272 -15.323469 15.385846 -16.754181 -33.767984 -0.430225 -19.252494 52.633205 -21.032644 5.277246 -33.169382 -8.413679 -4.550291 18.203879 6.000118 2.565357 31.819497 -0.559480 -1.801775 -9.762321 -5.332547 -0.812096 3.491692 -5.105126 0.325581 -18.466928 -3.583587 0.347163 10.373930 17.669181 -14.817590 8.661896 14.462145 -0.267890 0.219300 -91.010655 -40.306146 38.794473 33.852510 -64.712918 27.702563 -7.900718 -42.287650 9.423778 0.000002 -0.000001 0.000002 0.000000 -0.000000 -0.000000 0.000000 0.000000 0.000000 -14.991489 -1.839619 1.987126 74.016413 14.073305 9.578524 28.682510 57.560790 52.480124 -25.066378 17.296669 -1.754778 -0.000005 0.000004 -0.000002 -0.000000 0.000000 -0.000000 0.000000 0.000000 -0.000000 
5.218138 15.165165 36.024625 174.134387 -28.014948 -168.001475 -2.634084 -18.854603 -14.560092 8.702351 23.990422 8.964413 0.191428 22.232389 40.571693 15.809738 28.089420 36.943653 -10.850882 -5.169085 -20.560676 -3.559682 10.921940 -15.216851 15.633703 -16.564108 -33.275150 -0.048018 -19.199031 53.124955 -22.080449 4.450834 -33.596828 -9.005103 -3.990632 19.107016 6.228350 2.380228 31.879901 -0.625920 -1.264141 -9.814815 -5.632042 -0.451137 3.428829 -4.873635 0.355000 -18.431506 -3.480733 0.326392 10.424420 17.582187 -14.755917 8.808121 14.644980 -0.762603 -0.230980 -90.758786 -38.877106 38.973603 33.266300 -64.281877 27.786440 -5.714539 -41.908975 8.442947 0.000002 -0.000001 0.000002 0.000000 0.000000 0.000000 -0.000000 0.000000 0.000000 -14.573223 -2.206126 2.213307 73.940838 14.863018 8.634860 28.978012 56.575219 52.049748 -25.607999 16.935000 -1.813464 -0.000005 0.000004 -0.000002 -0.000000 0.000000 0.000000 -0.000000 -0.000000 -0.000000 
5.175120 15.148649 35.881832 174.690970 -26.856769 -168.418401 -2.744747 -18.159836 -14.311741 8.815552 24.282413 6.932156 0.903827 20.381396 43.751175 14.999011 27.780000 35.983435 -10.178171 -6.370210 -17.903448 -3.103537 11.094050 -15.221074 15.815347 -16.494843 -32.826791 -0.075565 -19.304543 53.613922 -22.928521 4.159749 -34.019646 -10.105643 -2.734531 20.676220 6.173760 2.107335 31.837964 -0.633016 -0.846561 -9.897530 -6.041768 -0.127749 3.347606 -4.435112 0.388557 -18.432541 -3.384544 0.278346 10.435167 17.494061 -14.567584 8.694215 14.908606 -0.901687 -0.484760 -90.502010 -37.577816 39.033231 32.378820 -63.938862 27.850482 -5.553912 -41.656666 8.320119 0.000002 -0.000001 0.000002 0.000000 0.000000 0.000000 0.000000 0.000000 0.000000 -13.950510 -2.290172 2.432983 73.869767 15.756341 7.664264 29.255797 55.565495 51.912695 -28.025398 15.843553 -2.093182 -0.000005 0.000004 -0.000002 0.000000 -0.000000 0.000000 -0.000000 -0.000000 0.000000 
5.140991 15.134685 35.735435 174.874394 -25.678026 -168.748731 -2.798278 -17.562687 -14.070945 8.201193 23.315186 5.120406 0.737041 19.421164 46.489335 13.917765 27.421880 34.698818 -9.737086 -9.144606 -14.541409 -2.765931 11.214957 -15.287144 15.439528 -16.147915 -31.705860 0.454628 -19.755078 53.617543 -23.778692 4.074814 -35.029856 -11.326385 -1.217228 22.437439 5.664330 1.814037 31.882613 -0.550843 -0.670739 -9.938082 -6.347305 0.102707 3.542298 -3.963197 0.476589 -18.638972 -3.283436 0.277454 10.256330 17.254326 -13.932381 8.018287 15.190980 -0.536482 -0.626599 -90.214033 -36.392230 38.892816 31.807706 -63.624310 27.849904 -6.755539 -41.477745 8.766740 0.000002 -0.000001 0.000002 0.000000 0.000000 -0.000000 -0.000000 -0.000000 -0.000000 -13.359272 -2.161290 2.592412 73.733897 17.024492 6.682522 29.480913 54.767632 51.128116 -27.462335 15.577165 -1.977906 -0.000005 0.000004 -0.000002 0.000000 -0.000000 0.000000 -0.000000 -0.000000 -0.000000 
5.115601 15.123423 35.594895 174.847692 -24.769490 -169.118821 -3.016271 -17.065714 -14.003278 7.451508 20.300059 4.060370 0.066677 20.206251 48.557657 12.891765 26.419361 33.297626 -9.097428 -8.233645 -13.636230 -2.478387 11.193488 -15.364425 14.940878 -16.204852 -30.357683 1.141329 -20.129382 53.374663 -24.687934 4.461627 -36.449957 -12.541532 -0.735931 24.677772 5.173025 1.686265 32.118632 -0.535000 -0.273012 -9.917239 -6.189162 0.568091 4.224455 -4.014140 0.421632 -19.170532 -3.168970 0.236786 10.056230 17.064380 -13.716996 7.469399 15.240744 -0.914202 -1.137039 -89.957793 -35.431114 38.215228 30.773334 -63.534692 28.089700 -6.164505 -40.952517 8.414329 0.000002 -0.000001 0.000002 0.000000 0.000000 0.000000 -0.000000 0.000000 0.000000 -13.131703 -3.203859 2.902663 73.547622 18.762323 5.835077 29.509445 54.216685 50.666810 -26.749464 15.829160 -1.896429 -0.000005 0.000004 -0.000002 0.000000 0.000000 -0.000000 -0.000000 0.000000 -0.000000 
5.078138 15.111862 35.458258 175.206399 -23.853529 -169.720150 -3.284310 -16.389290 -13.963687 7.299675 17.848914 3.046567 0.267448 21.046166 50.676719 11.431741 24.820710 31.704192 -8.295598 -7.169038 -12.513090 -1.990747 11.164869 -15.317673 14.857116 -16.707836 -29.344781 1.311823 -20.288065 53.294867 -25.055195 5.732664 -37.848363 -13.936284 -2.060149 28.025010 5.125333 1.444919 32.395236 -0.512551 -0.035922 -9.886885 -6.187331 0.680231 4.725725 -3.926139 0.471290 -19.553357 -3.058863 0.236206 9.781927 16.921797 -13.590987 7.527691 15.286230 -0.771190 -1.473611 -89.745787 -34.314551 37.011332 28.836107 -63.635223 28.609599 -6.483277 -39.998511 8.324441 0.000002 -0.000001 0.000002 0.000000 0.000000 -0.000000 -0.000000 0.000000 0.000000 -12.924222 -3.502516 3.078266 73.349225 20.331866 5.097654 29.385989 53.744466 50.469025 -26.756030 15.907264 -1.903278 -0.000005 0.000004 -0.000002 0.000000 -0.000000 0.000000 0.000000 -0.000000 0.000000 
